<svg width="1295" height="1262" viewBox="0 0 1295 1262" fill="none" xmlns="http://www.w3.org/2000/svg">
<mask id="path-1-outside-1_1_32" maskUnits="userSpaceOnUse" x="-40.1502" y="-39.8495" width="1375.27" height="1342.91" fill="black">
<rect fill="white" x="-40.1502" y="-39.8495" width="1375.27" height="1342.91"/>
<path fill-rule="evenodd" clip-rule="evenodd" d="M698.916 412.503C698.26 383.968 682.634 357.884 657.783 343.843L491.093 249.661C469.065 237.216 442.042 237.6 420.378 250.668V250.668C398.97 263.581 386.057 286.916 386.485 311.914L389.992 516.769C390.487 545.647 406.321 572.077 431.55 586.137L582.769 670.409C637.482 700.899 704.618 660.41 703.178 597.791L698.916 412.503ZM1070.97 577.299C1016.47 546.506 945.866 587.667 923.762 646.233C895.216 721.865 841.981 788.55 767.38 832.945C692.778 877.341 608.777 892.326 528.686 881.343C466.668 872.839 396.816 915.263 397.888 977.853L400.874 1152.26C401.939 1214.47 469.823 1252.3 523.285 1220.48L1224.42 803.236C1277.88 771.42 1277.01 693.711 1222.84 663.107L1070.97 577.299Z"/>
</mask>
<path fill-rule="evenodd" clip-rule="evenodd" d="M698.916 412.503C698.26 383.968 682.634 357.884 657.783 343.843L491.093 249.661C469.065 237.216 442.042 237.6 420.378 250.668V250.668C398.97 263.581 386.057 286.916 386.485 311.914L389.992 516.769C390.487 545.647 406.321 572.077 431.55 586.137L582.769 670.409C637.482 700.899 704.618 660.41 703.178 597.791L698.916 412.503ZM1070.97 577.299C1016.47 546.506 945.866 587.667 923.762 646.233C895.216 721.865 841.981 788.55 767.38 832.945C692.778 877.341 608.777 892.326 528.686 881.343C466.668 872.839 396.816 915.263 397.888 977.853L400.874 1152.26C401.939 1214.47 469.823 1252.3 523.285 1220.48L1224.42 803.236C1277.88 771.42 1277.01 693.711 1222.84 663.107L1070.97 577.299Z" fill="black"/>
<path d="M1224.42 803.236L1239.25 828.157L1224.42 803.236ZM1222.84 663.107L1237.11 637.859L1222.84 663.107ZM1070.97 577.299L1056.71 602.548L1070.97 577.299ZM582.769 670.409L568.651 695.741L582.769 670.409ZM389.992 516.769L360.997 517.265L389.992 516.769ZM698.916 412.503L727.909 411.836L698.916 412.503ZM491.093 249.661L476.827 274.91L491.093 249.661ZM476.827 274.91L643.517 369.092L672.049 318.595L505.358 224.413L476.827 274.91ZM418.988 516.272L415.48 311.417L357.489 312.41L360.997 517.265L418.988 516.272ZM596.886 645.077L445.667 560.805L417.433 611.469L568.651 695.741L596.886 645.077ZM669.924 413.17L674.185 598.458L732.17 597.125L727.909 411.836L669.924 413.17ZM782.21 857.866C862.677 809.981 920.121 738.007 950.894 656.473L896.63 635.992C870.311 705.724 821.285 767.119 752.549 808.024L782.21 857.866ZM524.746 910.074C611.086 921.914 701.744 905.752 782.21 857.866L752.549 808.024C683.813 848.93 606.468 862.738 532.626 852.612L524.746 910.074ZM429.87 1151.77L426.883 977.356L368.892 978.349L371.878 1152.76L429.87 1151.77ZM1209.59 778.315L508.455 1195.56L538.116 1245.4L1239.25 828.157L1209.59 778.315ZM1056.71 602.548L1208.57 688.356L1237.11 637.859L1085.24 552.051L1056.71 602.548ZM1239.25 828.157C1311.85 784.95 1310.66 679.42 1237.11 637.859L1208.57 688.356C1243.35 708.003 1243.91 757.89 1209.59 778.315L1239.25 828.157ZM371.878 1152.76C373.325 1237.23 465.513 1288.61 538.116 1245.4L508.455 1195.56C474.133 1215.99 430.554 1191.7 429.87 1151.77L371.878 1152.76ZM532.626 852.612C494.145 847.335 453.925 857.765 423.119 879.096C392.093 900.579 368.152 935.139 368.892 978.349L426.883 977.356C426.552 957.977 437.001 940.031 456.137 926.78C475.494 913.377 501.209 906.847 524.746 910.074L532.626 852.612ZM950.894 656.473C959.283 634.246 977.287 614.758 998.3 604.138C1019.07 593.638 1039.83 593.013 1056.71 602.548L1085.24 552.051C1047.61 530.792 1005.82 535.351 972.136 552.374C938.695 569.277 910.345 599.653 896.63 635.992L950.894 656.473ZM568.651 695.741C642.953 737.148 734.126 682.163 732.17 597.125L674.185 598.458C675.11 638.658 632.01 664.651 596.886 645.077L568.651 695.741ZM360.997 517.265C361.668 556.482 383.171 592.375 417.433 611.469L445.667 560.805C429.471 551.779 419.306 534.811 418.988 516.272L360.997 517.265ZM405.4 225.836C375.138 244.09 356.884 277.075 357.489 312.41L415.48 311.417C415.229 296.758 422.802 283.073 435.357 275.5L405.4 225.836ZM643.517 369.092C659.471 378.106 669.503 394.851 669.924 413.17L727.909 411.836C727.017 373.085 705.796 337.663 672.049 318.595L643.517 369.092ZM505.358 224.413C474.222 206.82 436.023 207.364 405.4 225.836L435.357 275.5C448.062 267.837 463.909 267.611 476.827 274.91L505.358 224.413Z" fill="#6CFFE5" mask="url(#path-1-outside-1_1_32)"/>
<mask id="path-3-outside-2_1_32" maskUnits="userSpaceOnUse" x="307.378" y="256.946" width="807" height="841" fill="black">
<rect fill="white" x="307.378" y="256.946" width="807" height="841"/>
<path fill-rule="evenodd" clip-rule="evenodd" d="M929.336 304.946C916.081 304.946 905.336 315.691 905.336 328.946V343.902H890.119C873.399 343.902 858.763 352.822 850.71 366.163H536.378C435.863 366.163 354.378 447.647 354.378 548.163V868.687C354.378 969.202 435.863 1050.69 536.378 1050.69H884.728C985.244 1050.69 1066.73 969.202 1066.73 868.687V548.163C1066.73 540.66 1066.27 533.263 1065.39 525.998C1066.26 522.458 1066.73 518.756 1066.73 514.946V389.902C1066.73 364.497 1046.13 343.902 1020.73 343.902H999.945V328.946C999.945 315.691 989.2 304.946 975.945 304.946H929.336Z"/>
</mask>
<path fill-rule="evenodd" clip-rule="evenodd" d="M929.336 304.946C916.081 304.946 905.336 315.691 905.336 328.946V343.902H890.119C873.399 343.902 858.763 352.822 850.71 366.163H536.378C435.863 366.163 354.378 447.647 354.378 548.163V868.687C354.378 969.202 435.863 1050.69 536.378 1050.69H884.728C985.244 1050.69 1066.73 969.202 1066.73 868.687V548.163C1066.73 540.66 1066.27 533.263 1065.39 525.998C1066.26 522.458 1066.73 518.756 1066.73 514.946V389.902C1066.73 364.497 1046.13 343.902 1020.73 343.902H999.945V328.946C999.945 315.691 989.2 304.946 975.945 304.946H929.336Z" fill="black"/>
<path d="M905.336 343.902V390.902H952.336V343.902H905.336ZM850.71 366.163V413.163H877.237L890.946 390.453L850.71 366.163ZM1065.39 525.998L1019.76 514.744L1017.7 523.11L1018.73 531.663L1065.39 525.998ZM999.945 343.902H952.945V390.902H999.945V343.902ZM952.336 328.946C952.336 341.648 942.039 351.946 929.336 351.946V257.946C890.124 257.946 858.336 289.734 858.336 328.946H952.336ZM952.336 343.902V328.946H858.336V343.902H952.336ZM890.119 390.902H905.336V296.902H890.119V390.902ZM890.946 390.453C890.872 390.577 890.785 390.664 890.652 390.74C890.573 390.786 890.47 390.831 890.351 390.864C890.293 390.879 890.239 390.89 890.193 390.896C890.171 390.899 890.153 390.901 890.139 390.901C890.133 390.902 890.128 390.902 890.124 390.902C890.12 390.902 890.119 390.902 890.119 390.902V296.902C856.261 296.902 826.681 315.025 810.473 341.873L890.946 390.453ZM536.378 413.163H850.71V319.163H536.378V413.163ZM401.378 548.163C401.378 473.605 461.82 413.163 536.378 413.163V319.163C409.905 319.163 307.378 421.69 307.378 548.163H401.378ZM401.378 868.687V548.163H307.378V868.687H401.378ZM536.378 1003.69C461.82 1003.69 401.378 943.245 401.378 868.687H307.378C307.378 995.16 409.905 1097.69 536.378 1097.69V1003.69ZM884.728 1003.69H536.378V1097.69H884.728V1003.69ZM1019.73 868.687C1019.73 943.245 959.286 1003.69 884.728 1003.69V1097.69C1011.2 1097.69 1113.73 995.16 1113.73 868.687H1019.73ZM1019.73 548.163V868.687H1113.73V548.163H1019.73ZM1018.73 531.663C1019.39 537.053 1019.73 542.558 1019.73 548.163H1113.73C1113.73 538.762 1113.16 529.473 1112.05 520.333L1018.73 531.663ZM1019.73 514.946C1019.73 514.946 1019.73 514.945 1019.73 514.942C1019.73 514.939 1019.73 514.935 1019.73 514.929C1019.73 514.918 1019.73 514.902 1019.73 514.883C1019.74 514.844 1019.75 514.797 1019.76 514.744L1111.02 537.251C1112.8 530.058 1113.73 522.578 1113.73 514.946H1019.73ZM1019.73 389.902V514.946H1113.73V389.902H1019.73ZM1020.73 390.902C1020.73 390.902 1020.73 390.902 1020.72 390.902C1020.72 390.902 1020.72 390.902 1020.72 390.902C1020.71 390.902 1020.7 390.901 1020.68 390.899C1020.65 390.896 1020.62 390.891 1020.58 390.883C1020.49 390.865 1020.4 390.838 1020.32 390.804C1020.17 390.74 1020.08 390.666 1020.02 390.609C1019.96 390.553 1019.89 390.46 1019.83 390.306C1019.79 390.226 1019.77 390.14 1019.75 390.054C1019.74 390.012 1019.73 389.976 1019.73 389.948C1019.73 389.934 1019.73 389.923 1019.73 389.915C1019.73 389.911 1019.73 389.908 1019.73 389.905C1019.73 389.903 1019.73 389.902 1019.73 389.902H1113.73C1113.73 338.54 1072.09 296.902 1020.73 296.902V390.902ZM999.945 390.902H1020.73V296.902H999.945V390.902ZM952.945 328.946V343.902H1046.94V328.946H952.945ZM975.945 351.946C963.242 351.946 952.945 341.648 952.945 328.946H1046.94C1046.94 289.734 1015.16 257.946 975.945 257.946V351.946ZM929.336 351.946H975.945V257.946H929.336V351.946Z" fill="white" mask="url(#path-3-outside-2_1_32)"/>
<rect x="637.205" y="437.511" width="180.087" height="68.7828" rx="7" fill="white" stroke="white" stroke-width="2"/>
<rect x="470.248" y="431.946" width="85.4785" height="79.9132" rx="5" fill="#FFF7AE" stroke="white" stroke-width="2"/>
<circle cx="710.553" cy="705.643" r="134.566" fill="#6CFFE5" stroke="white" stroke-width="2"/>
<circle cx="713.336" cy="702.86" r="76.1306" fill="black" stroke="white" stroke-width="2"/>
</svg>
