<svg width="1506" height="1463" viewBox="0 0 1506 1463" fill="none" xmlns="http://www.w3.org/2000/svg">
<mask id="path-1-outside-1_1_32" maskUnits="userSpaceOnUse" x="-39.9865" y="-39.4064" width="1586.45" height="1542.96" fill="black">
<rect fill="white" x="-39.9865" y="-39.4064" width="1586.45" height="1542.96"/>
<path fill-rule="evenodd" clip-rule="evenodd" d="M491.87 293.556C467.215 308.428 452.342 335.302 452.835 364.092L456.996 607.098C457.491 635.976 473.325 662.406 498.554 676.466L697.652 787.42C752.365 817.911 819.501 777.422 818.061 714.803L812.499 472.959C811.842 444.424 796.216 418.34 771.366 404.3L573.311 292.396C547.943 278.063 516.82 278.506 491.87 293.556V293.556ZM1222.48 659.182C1167.97 628.388 1097.84 669.28 1078.68 728.875C1048.01 824.278 984.025 909.101 891.508 964.158C798.991 1019.22 693.92 1035 595.438 1016.45C533.92 1004.87 464.529 1047.01 465.601 1109.6L469.77 1353.09C470.835 1415.3 538.719 1453.13 592.182 1421.31L1436.08 919.108C1489.54 887.292 1488.67 809.583 1434.5 778.979L1222.48 659.182Z"/>
</mask>
<path fill-rule="evenodd" clip-rule="evenodd" d="M491.87 293.556C467.215 308.428 452.342 335.302 452.835 364.092L456.996 607.098C457.491 635.976 473.325 662.406 498.554 676.466L697.652 787.42C752.365 817.911 819.501 777.422 818.061 714.803L812.499 472.959C811.842 444.424 796.216 418.34 771.366 404.3L573.311 292.396C547.943 278.063 516.82 278.506 491.87 293.556V293.556ZM1222.48 659.182C1167.97 628.388 1097.84 669.28 1078.68 728.875C1048.01 824.278 984.025 909.101 891.508 964.158C798.991 1019.22 693.92 1035 595.438 1016.45C533.92 1004.87 464.529 1047.01 465.601 1109.6L469.77 1353.09C470.835 1415.3 538.719 1453.13 592.182 1421.31L1436.08 919.108C1489.54 887.292 1488.67 809.583 1434.5 778.979L1222.48 659.182Z" fill="black"/>
<path d="M1434.5 778.979L1420.24 804.228L1434.5 778.979ZM469.77 1353.09L440.774 1353.59L469.77 1353.09ZM1078.68 728.875L1051.07 719.998L1078.68 728.875ZM1222.48 659.182L1208.21 684.431L1222.48 659.182ZM812.499 472.959L783.506 473.626L812.499 472.959ZM818.061 714.803L789.069 715.47L818.061 714.803ZM452.835 364.092L423.84 364.588L452.835 364.092ZM456.996 607.098L485.992 606.601L456.996 607.098ZM485.992 606.601L481.831 363.595L423.84 364.588L428.001 607.594L485.992 606.601ZM711.769 762.088L512.671 651.134L484.437 701.798L683.535 812.752L711.769 762.088ZM783.506 473.626L789.069 715.47L847.053 714.136L841.491 472.292L783.506 473.626ZM559.045 317.645L757.1 429.548L785.631 379.051L587.577 267.148L559.045 317.645ZM906.339 989.079C1005.18 930.257 1073.55 839.593 1106.29 737.751L1051.07 719.998C1022.47 808.963 962.868 887.945 876.678 939.237L906.339 989.079ZM590.072 1044.95C695.2 1064.75 807.495 1047.9 906.339 989.079L876.678 939.237C790.486 990.53 692.64 1005.25 600.803 987.956L590.072 1044.95ZM498.766 1352.6L494.597 1109.1L436.605 1110.1L440.774 1353.59L498.766 1352.6ZM1421.25 894.187L577.351 1396.39L607.012 1446.23L1450.91 944.029L1421.25 894.187ZM1208.21 684.431L1420.24 804.228L1448.77 753.731L1236.74 633.933L1208.21 684.431ZM1450.91 944.029C1523.51 900.822 1522.33 795.292 1448.77 753.731L1420.24 804.228C1455.01 823.875 1455.57 873.762 1421.25 894.187L1450.91 944.029ZM440.774 1353.59C442.221 1438.07 534.409 1489.44 607.012 1446.23L577.351 1396.39C543.029 1416.82 499.45 1392.53 498.766 1352.6L440.774 1353.59ZM600.803 987.956C562.132 980.675 521.672 990.229 490.757 1011.22C459.6 1032.38 435.867 1066.98 436.605 1110.1L494.597 1109.1C494.263 1089.63 504.69 1071.87 523.339 1059.2C542.231 1046.38 567.225 1040.65 590.072 1044.95L600.803 987.956ZM1106.29 737.751C1113.41 715.619 1130.36 696.381 1150.64 685.894C1170.67 675.543 1191.25 674.848 1208.21 684.431L1236.74 633.933C1199.2 612.723 1157.47 617.077 1124.01 634.371C1090.81 651.531 1063.12 682.536 1051.07 719.998L1106.29 737.751ZM587.577 267.148C553.099 247.667 510.801 248.27 476.892 268.724L506.849 318.388C522.84 308.742 542.786 308.458 559.045 317.645L587.577 267.148ZM841.491 472.292C840.6 433.541 819.379 398.119 785.631 379.051L757.1 429.548C773.053 438.562 783.085 455.307 783.506 473.626L841.491 472.292ZM683.535 812.752C757.836 854.159 849.009 799.174 847.053 714.136L789.069 715.47C789.993 755.67 746.893 781.663 711.769 762.088L683.535 812.752ZM481.831 363.595C481.515 345.144 491.047 327.92 506.849 318.388L476.892 268.724C443.383 288.936 423.17 325.461 423.84 364.588L481.831 363.595ZM428.001 607.594C428.672 646.811 450.175 682.704 484.437 701.798L512.671 651.134C496.475 642.108 486.31 625.14 485.992 606.601L428.001 607.594Z" fill="#6CFFE5" mask="url(#path-1-outside-1_1_32)"/>
<mask id="path-3-outside-2_1_32" maskUnits="userSpaceOnUse" x="454.378" y="406.946" width="745" height="779" fill="black">
<rect fill="white" x="454.378" y="406.946" width="745" height="779"/>
<path fill-rule="evenodd" clip-rule="evenodd" d="M1045.34 423.946C1032.08 423.946 1021.34 434.691 1021.34 447.946V462.902H1006.12C989.399 462.902 974.763 471.822 966.71 485.163H652.378C551.863 485.163 470.378 566.647 470.378 667.163V987.687C470.378 1088.2 551.863 1169.69 652.378 1169.69H1000.73C1101.24 1169.69 1182.73 1088.2 1182.73 987.687V667.163C1182.73 659.66 1182.27 652.263 1181.39 644.998C1182.26 641.458 1182.73 637.756 1182.73 633.946V508.902C1182.73 483.497 1162.13 462.902 1136.73 462.902H1115.94V447.946C1115.94 434.691 1105.2 423.946 1091.94 423.946H1045.34Z"/>
</mask>
<path fill-rule="evenodd" clip-rule="evenodd" d="M1045.34 423.946C1032.08 423.946 1021.34 434.691 1021.34 447.946V462.902H1006.12C989.399 462.902 974.763 471.822 966.71 485.163H652.378C551.863 485.163 470.378 566.647 470.378 667.163V987.687C470.378 1088.2 551.863 1169.69 652.378 1169.69H1000.73C1101.24 1169.69 1182.73 1088.2 1182.73 987.687V667.163C1182.73 659.66 1182.27 652.263 1181.39 644.998C1182.26 641.458 1182.73 637.756 1182.73 633.946V508.902C1182.73 483.497 1162.13 462.902 1136.73 462.902H1115.94V447.946C1115.94 434.691 1105.2 423.946 1091.94 423.946H1045.34Z" fill="black"/>
<path d="M1021.34 462.902V478.902H1037.34V462.902H1021.34ZM966.71 485.163V501.163H975.74L980.407 493.432L966.71 485.163ZM1181.39 644.998L1165.86 641.167L1165.15 644.015L1165.51 646.926L1181.39 644.998ZM1115.94 462.902H1099.94V478.902H1115.94V462.902ZM1037.34 447.946C1037.34 443.528 1040.92 439.946 1045.34 439.946V407.946C1023.24 407.946 1005.34 425.854 1005.34 447.946H1037.34ZM1037.34 462.902V447.946H1005.34V462.902H1037.34ZM1006.12 478.902H1021.34V446.902H1006.12V478.902ZM980.407 493.432C985.685 484.69 995.234 478.902 1006.12 478.902V446.902C983.565 446.902 963.841 458.955 953.012 476.894L980.407 493.432ZM652.378 501.163H966.71V469.163H652.378V501.163ZM486.378 667.163C486.378 575.484 560.699 501.163 652.378 501.163V469.163C543.026 469.163 454.378 557.811 454.378 667.163H486.378ZM486.378 987.687V667.163H454.378V987.687H486.378ZM652.378 1153.69C560.699 1153.69 486.378 1079.37 486.378 987.687H454.378C454.378 1097.04 543.026 1185.69 652.378 1185.69V1153.69ZM1000.73 1153.69H652.378V1185.69H1000.73V1153.69ZM1166.73 987.687C1166.73 1079.37 1092.41 1153.69 1000.73 1153.69V1185.69C1110.08 1185.69 1198.73 1097.04 1198.73 987.687H1166.73ZM1166.73 667.163V987.687H1198.73V667.163H1166.73ZM1165.51 646.926C1166.31 653.553 1166.73 660.306 1166.73 667.163H1198.73C1198.73 659.014 1198.23 650.973 1197.28 643.069L1165.51 646.926ZM1166.73 633.946C1166.73 636.455 1166.42 638.87 1165.86 641.167L1196.93 648.829C1198.11 644.045 1198.73 639.057 1198.73 633.946H1166.73ZM1166.73 508.902V633.946H1198.73V508.902H1166.73ZM1136.73 478.902C1153.3 478.902 1166.73 492.334 1166.73 508.902H1198.73C1198.73 474.661 1170.97 446.902 1136.73 446.902V478.902ZM1115.94 478.902H1136.73V446.902H1115.94V478.902ZM1099.94 447.946V462.902H1131.94V447.946H1099.94ZM1091.94 439.946C1096.36 439.946 1099.94 443.528 1099.94 447.946H1131.94C1131.94 425.854 1114.04 407.946 1091.94 407.946V439.946ZM1045.34 439.946H1091.94V407.946H1045.34V439.946Z" fill="white" mask="url(#path-3-outside-2_1_32)"/>
<rect x="753.205" y="556.511" width="180.087" height="68.7828" rx="7" fill="white" stroke="white" stroke-width="2"/>
<rect x="586.248" y="550.946" width="85.4785" height="79.9132" rx="5" fill="#FFF7AE" stroke="white" stroke-width="2"/>
<circle cx="826.553" cy="824.643" r="134.566" fill="#6CFFE5" stroke="white" stroke-width="2"/>
<circle cx="829.336" cy="821.86" r="76.1306" fill="black" stroke="white" stroke-width="2"/>
<g opacity="0.73">
<path d="M609.496 1095V1005.66H626.392V1080.02H661.592V1095H609.496ZM668.054 1095V1081.43H679.83V1019.22H668.054V1005.66H708.63V1019.22H696.726V1081.43H708.63V1095H668.054ZM776.707 1095L769.539 1072.22H737.795L730.755 1095H713.603L743.555 1005.66H764.547L794.243 1095H776.707ZM753.923 1021.02H753.283L741.891 1057.75H765.443L753.923 1021.02ZM828.531 1049.18L819.315 1030.62H818.931V1095H802.931V1005.66H821.491L848.371 1051.48L857.587 1070.04H857.971V1005.66H873.971V1095H855.411L828.531 1049.18ZM890.451 1095V1005.66H930.643C934.739 1005.66 938.408 1006.34 941.651 1007.7C944.979 1008.98 947.795 1010.86 950.099 1013.34C952.403 1015.73 954.152 1018.63 955.347 1022.04C956.542 1025.45 957.139 1029.21 957.139 1033.3C957.139 1037.49 956.542 1041.28 955.347 1044.7C954.152 1048.02 952.403 1050.93 950.099 1053.4C947.795 1055.79 944.979 1057.67 941.651 1059.03C938.408 1060.31 934.739 1060.95 930.643 1060.95H907.347V1095H890.451ZM907.347 1046.36H929.107C932.35 1046.36 934.91 1045.51 936.787 1043.8C938.664 1042.01 939.603 1039.49 939.603 1036.25V1030.36C939.603 1027.12 938.664 1024.64 936.787 1022.94C934.91 1021.23 932.35 1020.38 929.107 1020.38H907.347V1046.36ZM1022.11 1057.24H984.867V1095H967.971V1005.66H984.867V1042.26H1022.11V1005.66H1039.01V1095H1022.11V1057.24Z" fill="white"/>
<path d="M609.496 1095H608.496V1096H609.496V1095ZM609.496 1005.66V1004.66H608.496V1005.66H609.496ZM626.392 1005.66H627.392V1004.66H626.392V1005.66ZM626.392 1080.02H625.392V1081.02H626.392V1080.02ZM661.592 1080.02H662.592V1079.02H661.592V1080.02ZM661.592 1095V1096H662.592V1095H661.592ZM610.496 1095V1005.66H608.496V1095H610.496ZM609.496 1006.66H626.392V1004.66H609.496V1006.66ZM625.392 1005.66V1080.02H627.392V1005.66H625.392ZM626.392 1081.02H661.592V1079.02H626.392V1081.02ZM660.592 1080.02V1095H662.592V1080.02H660.592ZM661.592 1094H609.496V1096H661.592V1094ZM668.054 1095H667.054V1096H668.054V1095ZM668.054 1081.43V1080.43H667.054V1081.43H668.054ZM679.83 1081.43V1082.43H680.83V1081.43H679.83ZM679.83 1019.22H680.83V1018.22H679.83V1019.22ZM668.054 1019.22H667.054V1020.22H668.054V1019.22ZM668.054 1005.66V1004.66H667.054V1005.66H668.054ZM708.63 1005.66H709.63V1004.66H708.63V1005.66ZM708.63 1019.22V1020.22H709.63V1019.22H708.63ZM696.726 1019.22V1018.22H695.726V1019.22H696.726ZM696.726 1081.43H695.726V1082.43H696.726V1081.43ZM708.63 1081.43H709.63V1080.43H708.63V1081.43ZM708.63 1095V1096H709.63V1095H708.63ZM669.054 1095V1081.43H667.054V1095H669.054ZM668.054 1082.43H679.83V1080.43H668.054V1082.43ZM680.83 1081.43V1019.22H678.83V1081.43H680.83ZM679.83 1018.22H668.054V1020.22H679.83V1018.22ZM669.054 1019.22V1005.66H667.054V1019.22H669.054ZM668.054 1006.66H708.63V1004.66H668.054V1006.66ZM707.63 1005.66V1019.22H709.63V1005.66H707.63ZM708.63 1018.22H696.726V1020.22H708.63V1018.22ZM695.726 1019.22V1081.43H697.726V1019.22H695.726ZM696.726 1082.43H708.63V1080.43H696.726V1082.43ZM707.63 1081.43V1095H709.63V1081.43H707.63ZM708.63 1094H668.054V1096H708.63V1094ZM776.707 1095L775.753 1095.3L775.973 1096H776.707V1095ZM769.539 1072.22L770.493 1071.92L770.273 1071.22H769.539V1072.22ZM737.795 1072.22V1071.22H737.057L736.84 1071.92L737.795 1072.22ZM730.755 1095V1096H731.493L731.71 1095.3L730.755 1095ZM713.603 1095L712.655 1094.68L712.213 1096H713.603V1095ZM743.555 1005.66V1004.66H742.836L742.607 1005.34L743.555 1005.66ZM764.547 1005.66L765.496 1005.34L765.268 1004.66H764.547V1005.66ZM794.243 1095V1096H795.629L795.192 1094.68L794.243 1095ZM753.923 1021.02L754.877 1020.72L754.657 1020.02H753.923V1021.02ZM753.283 1021.02V1020.02H752.546L752.328 1020.72L753.283 1021.02ZM741.891 1057.75L740.936 1057.46L740.534 1058.75H741.891V1057.75ZM765.443 1057.75V1058.75H766.805L766.397 1057.45L765.443 1057.75ZM777.661 1094.7L770.493 1071.92L768.585 1072.52L775.753 1095.3L777.661 1094.7ZM769.539 1071.22H737.795V1073.22H769.539V1071.22ZM736.84 1071.92L729.8 1094.7L731.71 1095.3L738.75 1072.51L736.84 1071.92ZM730.755 1094H713.603V1096H730.755V1094ZM714.551 1095.32L744.503 1005.97L742.607 1005.34L712.655 1094.68L714.551 1095.32ZM743.555 1006.66H764.547V1004.66H743.555V1006.66ZM763.598 1005.97L793.294 1095.32L795.192 1094.68L765.496 1005.34L763.598 1005.97ZM794.243 1094H776.707V1096H794.243V1094ZM753.923 1020.02H753.283V1022.02H753.923V1020.02ZM752.328 1020.72L740.936 1057.46L742.846 1058.05L754.238 1021.31L752.328 1020.72ZM741.891 1058.75H765.443V1056.75H741.891V1058.75ZM766.397 1057.45L754.877 1020.72L752.969 1021.32L764.489 1058.05L766.397 1057.45ZM828.531 1049.18L827.635 1049.62L827.651 1049.65L827.668 1049.68L828.531 1049.18ZM819.315 1030.62L820.211 1030.17L819.935 1029.62H819.315V1030.62ZM818.931 1030.62V1029.62H817.931V1030.62H818.931ZM818.931 1095V1096H819.931V1095H818.931ZM802.931 1095H801.931V1096H802.931V1095ZM802.931 1005.66V1004.66H801.931V1005.66H802.931ZM821.491 1005.66L822.354 1005.15L822.064 1004.66H821.491V1005.66ZM848.371 1051.48L849.267 1051.04L849.251 1051L849.234 1050.97L848.371 1051.48ZM857.587 1070.04L856.691 1070.48L856.967 1071.04H857.587V1070.04ZM857.971 1070.04V1071.04H858.971V1070.04H857.971ZM857.971 1005.66V1004.66H856.971V1005.66H857.971ZM873.971 1005.66H874.971V1004.66H873.971V1005.66ZM873.971 1095V1096H874.971V1095H873.971ZM855.411 1095L854.548 1095.51L854.838 1096H855.411V1095ZM829.427 1048.73L820.211 1030.17L818.419 1031.06L827.635 1049.62L829.427 1048.73ZM819.315 1029.62H818.931V1031.62H819.315V1029.62ZM817.931 1030.62V1095H819.931V1030.62H817.931ZM818.931 1094H802.931V1096H818.931V1094ZM803.931 1095V1005.66H801.931V1095H803.931ZM802.931 1006.66H821.491V1004.66H802.931V1006.66ZM820.628 1006.16L847.508 1051.99L849.234 1050.97L822.354 1005.15L820.628 1006.16ZM847.475 1051.92L856.691 1070.48L858.483 1069.6L849.267 1051.04L847.475 1051.92ZM857.587 1071.04H857.971V1069.04H857.587V1071.04ZM858.971 1070.04V1005.66H856.971V1070.04H858.971ZM857.971 1006.66H873.971V1004.66H857.971V1006.66ZM872.971 1005.66V1095H874.971V1005.66H872.971ZM873.971 1094H855.411V1096H873.971V1094ZM856.274 1094.49L829.394 1048.67L827.668 1049.68L854.548 1095.51L856.274 1094.49ZM890.451 1095H889.451V1096H890.451V1095ZM890.451 1005.66V1004.66H889.451V1005.66H890.451ZM941.651 1007.7L941.263 1008.63L941.277 1008.63L941.292 1008.64L941.651 1007.7ZM950.099 1013.34L949.367 1014.02L949.373 1014.02L949.379 1014.03L950.099 1013.34ZM955.347 1022.04L956.291 1021.71L956.291 1021.71L955.347 1022.04ZM955.347 1044.7L956.288 1045.03L956.291 1045.03L955.347 1044.7ZM950.099 1053.4L950.819 1054.09L950.825 1054.09L950.831 1054.08L950.099 1053.4ZM941.651 1059.03L942.018 1059.96L942.031 1059.96L941.651 1059.03ZM907.347 1060.95V1059.95H906.347V1060.95H907.347ZM907.347 1095V1096H908.347V1095H907.347ZM907.347 1046.36H906.347V1047.36H907.347V1046.36ZM936.787 1043.8L937.46 1044.54L937.469 1044.53L937.477 1044.52L936.787 1043.8ZM936.787 1022.94L937.46 1022.2L937.46 1022.2L936.787 1022.94ZM907.347 1020.38V1019.38H906.347V1020.38H907.347ZM891.451 1095V1005.66H889.451V1095H891.451ZM890.451 1006.66H930.643V1004.66H890.451V1006.66ZM930.643 1006.66C934.627 1006.66 938.162 1007.32 941.263 1008.63L942.039 1006.78C938.655 1005.36 934.851 1004.66 930.643 1004.66V1006.66ZM941.292 1008.64C944.486 1009.87 947.172 1011.66 949.367 1014.02L950.831 1012.65C948.418 1010.06 945.472 1008.1 942.01 1006.77L941.292 1008.64ZM949.379 1014.03C951.574 1016.31 953.252 1019.08 954.403 1022.37L956.291 1021.71C955.053 1018.17 953.231 1015.14 950.819 1012.64L949.379 1014.03ZM954.403 1022.37C955.556 1025.66 956.139 1029.31 956.139 1033.3H958.139C958.139 1029.11 957.527 1025.24 956.291 1021.71L954.403 1022.37ZM956.139 1033.3C956.139 1037.39 955.555 1041.07 954.403 1044.37L956.291 1045.03C957.528 1041.49 958.139 1037.58 958.139 1033.3H956.139ZM954.406 1044.36C953.255 1047.56 951.575 1050.35 949.367 1052.72L950.831 1054.08C953.231 1051.5 955.05 1048.48 956.288 1045.03L954.406 1044.36ZM949.379 1052.71C947.179 1054.99 944.482 1056.79 941.271 1058.11L942.031 1059.96C945.476 1058.54 948.411 1056.59 950.819 1054.09L949.379 1052.71ZM941.284 1058.1C938.177 1059.33 934.635 1059.95 930.643 1059.95V1061.95C934.843 1061.95 938.64 1061.3 942.018 1059.96L941.284 1058.1ZM930.643 1059.95H907.347V1061.95H930.643V1059.95ZM906.347 1060.95V1095H908.347V1060.95H906.347ZM907.347 1094H890.451V1096H907.347V1094ZM907.347 1047.36H929.107V1045.36H907.347V1047.36ZM929.107 1047.36C932.527 1047.36 935.351 1046.46 937.46 1044.54L936.114 1043.06C934.468 1044.56 932.172 1045.36 929.107 1045.36V1047.36ZM937.477 1044.52C939.599 1042.5 940.603 1039.69 940.603 1036.25H938.603C938.603 1039.29 937.729 1041.52 936.096 1043.08L937.477 1044.52ZM940.603 1036.25V1030.36H938.603V1036.25H940.603ZM940.603 1030.36C940.603 1026.92 939.6 1024.14 937.46 1022.2L936.114 1023.68C937.729 1025.14 938.603 1027.32 938.603 1030.36H940.603ZM937.46 1022.2C935.351 1020.28 932.527 1019.38 929.107 1019.38V1021.38C932.172 1021.38 934.468 1022.18 936.114 1023.68L937.46 1022.2ZM929.107 1019.38H907.347V1021.38H929.107V1019.38ZM906.347 1020.38V1046.36H908.347V1020.38H906.347ZM1022.11 1057.24H1023.11V1056.24H1022.11V1057.24ZM984.867 1057.24V1056.24H983.867V1057.24H984.867ZM984.867 1095V1096H985.867V1095H984.867ZM967.971 1095H966.971V1096H967.971V1095ZM967.971 1005.66V1004.66H966.971V1005.66H967.971ZM984.867 1005.66H985.867V1004.66H984.867V1005.66ZM984.867 1042.26H983.867V1043.26H984.867V1042.26ZM1022.11 1042.26V1043.26H1023.11V1042.26H1022.11ZM1022.11 1005.66V1004.66H1021.11V1005.66H1022.11ZM1039.01 1005.66H1040.01V1004.66H1039.01V1005.66ZM1039.01 1095V1096H1040.01V1095H1039.01ZM1022.11 1095H1021.11V1096H1022.11V1095ZM1022.11 1056.24H984.867V1058.24H1022.11V1056.24ZM983.867 1057.24V1095H985.867V1057.24H983.867ZM984.867 1094H967.971V1096H984.867V1094ZM968.971 1095V1005.66H966.971V1095H968.971ZM967.971 1006.66H984.867V1004.66H967.971V1006.66ZM983.867 1005.66V1042.26H985.867V1005.66H983.867ZM984.867 1043.26H1022.11V1041.26H984.867V1043.26ZM1023.11 1042.26V1005.66H1021.11V1042.26H1023.11ZM1022.11 1006.66H1039.01V1004.66H1022.11V1006.66ZM1038.01 1005.66V1095H1040.01V1005.66H1038.01ZM1039.01 1094H1022.11V1096H1039.01V1094ZM1023.11 1095V1057.24H1021.11V1095H1023.11Z" fill="black"/>
</g>
</svg>
